<svg width="40" height="40" viewBox="0 0 40 40" fill="none" xmlns="http://www.w3.org/2000/svg">
<g clip-path="url(#clip0_329_1961)">
<path d="M29.4334 37.6529C24.9965 37.6529 24.9295 36.0879 19.9996 36.0879C15.0673 36.0879 15.0081 37.6529 10.5662 37.6529C6.12945 37.6529 6.06258 36.0879 1.13281 36.0879V38.4352C5.56961 38.4352 5.63648 40.0002 10.5662 40.0002C15.4985 40.0002 15.5578 38.4352 19.9996 38.4352C24.4365 38.4352 24.5035 40.0002 29.4334 40.0002C34.3659 40.0002 34.4251 38.4352 38.8672 38.4352V36.0879C33.9348 36.0878 33.8753 37.6529 29.4334 37.6529Z" fill="white"/>
<path d="M29.4334 32.8795C24.9965 32.8795 24.9295 31.3145 19.9996 31.3145C15.0673 31.3145 15.0081 32.8795 10.5662 32.8795C6.12945 32.8795 6.06258 31.3145 1.13281 31.3145V33.6618C5.56961 33.6618 5.63648 35.2269 10.5662 35.2269C15.4986 35.2269 15.5577 33.6618 19.9996 33.6618C24.4365 33.6618 24.5035 35.2269 29.4334 35.2269C34.3659 35.2269 34.4251 33.6618 38.8672 33.6618V31.3145C33.9348 31.3145 33.8753 32.8795 29.4334 32.8795Z" fill="white"/>
<path d="M25.7407 7.92813C23.6103 4.64758 21.8091 2.29516 19.9996 0C18.2075 2.27313 16.4266 4.58977 14.2587 7.92813C10.9773 12.9812 9.31348 16.7554 9.31348 19.1457C9.31348 22.4023 10.4801 25.1504 12.6874 27.0927C14.6293 28.8016 17.2292 29.7428 20.0081 29.7428C22.7849 29.7428 25.3813 28.8024 27.3189 27.095C29.5216 25.1539 30.6859 22.4051 30.6859 19.1457C30.6859 16.7554 29.0221 12.9812 25.7407 7.92813Z" fill="white"/>
</g>
<defs>
<clipPath id="clip0_329_1961">
<rect width="40" height="40" fill="white"/>
</clipPath>
</defs>
</svg>
