<svg width="40" height="40" viewBox="0 0 40 40" fill="none" xmlns="http://www.w3.org/2000/svg">
<path d="M18.7715 0.545149C18.7715 0.244755 19.0162 0 19.3166 0H22.6327C22.9336 0 23.1778 0.244755 23.1778 0.545149V1.84092H18.7715V0.545149Z" fill="white"/>
<path d="M23.1554 39.4546C23.1554 39.7555 22.9111 39.9997 22.6102 39.9997H19.2942C18.9938 39.9997 18.749 39.7555 18.749 39.4546V29.2109H21.2283H22.3186H23.1554V39.4546Z" fill="white"/>
<path d="M31.0407 17.2182C31.3411 17.2182 31.5858 17.463 31.5858 17.7634V27.5759C31.5858 27.8763 31.3411 28.121 31.0407 28.121H24.2456H23.1553H21.7733H21.2282H18.7489H17.6586H16.8219H15.5495H9.05364C8.89395 28.121 8.74293 28.0507 8.63823 27.9292L4.4592 23.0229C4.2848 22.8179 4.28425 22.5203 4.45866 22.3159L8.63877 17.4091C8.74183 17.2875 8.8934 17.2178 9.05364 17.2178H16.2996H16.8448H17.6587H18.749H21.2512H21.7964H23.1553H24.2456H31.0408L31.0407 17.2182Z" fill="white"/>
<path d="M22.3414 16.1281H21.2511H18.749V14.9238H23.1554V16.1281H22.3414Z" fill="white"/>
<path d="M23.7004 13.8334H23.1552H18.7489H18.2037H8.95921C8.65882 13.8334 8.41406 13.5886 8.41406 13.2882V3.47581C8.41406 3.17542 8.65882 2.93066 8.95921 2.93066H18.2266H18.7717H23.178H24.4504H30.9463C31.106 2.93066 31.257 3.00101 31.3617 3.12252L35.5407 8.02877C35.7151 8.23379 35.7157 8.53135 35.5412 8.73582L31.3611 13.6426C31.2581 13.7642 31.1065 13.8339 30.9463 13.8339H23.7003L23.7004 13.8334Z" fill="white"/>
</svg>
