<svg width="40" height="32" viewBox="0 0 40 32" fill="none" xmlns="http://www.w3.org/2000/svg">
<path d="M37.3633 5.86784C36.7871 5.86784 32.9102 5.86784 27.9469 5.86784V1.8005C27.9469 1.05034 27.3389 0.444336 26.5919 0.444336H13.8598C13.1109 0.444336 12.5036 1.05045 12.5036 1.8005V5.86784C7.25224 5.86784 3.10852 5.86784 2.55977 5.86784C0.978985 5.86784 0 6.69668 0 7.90155C0 9.10695 0 10.3118 0 10.3118H40C40 10.3118 40 9.25656 40 8.09078C40 6.9232 39.0968 5.86784 37.3633 5.86784ZM25.2343 5.86784C21.991 5.86784 18.4863 5.86784 15.2161 5.86784V3.1554H25.2343V5.86784Z" fill="white"/>
<path d="M0.151651 29.7484C0.151651 30.803 0.67655 31.555 1.95885 31.555H38.0398C39.3203 31.555 39.8476 30.5198 39.8476 29.7484V11.7441C36.9851 11.7441 3.20155 11.7441 0.150391 11.7441V29.7483L0.151651 29.7484ZM20.0002 14.5878C23.9016 14.5878 27.0633 17.7487 27.0633 21.6501C27.0633 25.5503 23.9016 28.7132 20.0002 28.7132C16.0989 28.7132 12.9379 25.5504 12.9379 21.6501C12.9379 17.7489 16.0989 14.5878 20.0002 14.5878Z" fill="white"/>
<path d="M18.4864 26.2829H21.5137V23.1653H24.6326V20.1355H21.5137V17.0166H18.4864V20.1355H15.3662V23.1653H18.4864V26.2829Z" fill="white"/>
</svg>
