<svg width="40" height="40" viewBox="0 0 40 40" fill="none" xmlns="http://www.w3.org/2000/svg">
<path d="M37.2807 33.9679H37.1804L22.0567 6.50366L23.853 3.18313C24.314 2.33103 23.997 1.26629 23.1447 0.805414C22.2928 0.344537 21.2282 0.661379 20.7668 1.51366L20.0619 2.81664L19.357 1.51366C18.8958 0.661554 17.8314 0.344361 16.9791 0.805414C16.1268 1.26629 15.8098 2.33085 16.2709 3.18313L17.9179 6.22769L2.46175 33.9809C1.08281 34.1112 0 35.2745 0 36.6872C0 38.1866 1.21982 39.4065 2.7193 39.4065H37.2807C38.7802 39.4065 40 38.1866 40 36.6872C40 35.1877 38.7802 33.9679 37.2807 33.9679ZM16.9626 28.321C18.5203 25.7828 19.7263 23.0214 20.0167 20.8417C20.2625 23.071 21.456 25.8833 22.9704 28.3509C24.5228 30.8801 26.3721 32.8724 28.0896 33.9679H11.7674C13.5061 32.891 15.3874 30.8875 16.9626 28.321Z" fill="white"/>
</svg>
